<svg xmlns="http://www.w3.org/2000/svg" width="906" height="604" viewBox="0 0 906 604">
  <defs>
    <style>
      .cls-1 {
        fill: #118ab2;
        stroke: #feffff;
        stroke-width: 1px;
        fill-rule: evenodd;
      }
    </style>
  </defs>
  <path id="Forma_4" data-name="Forma 4" class="cls-1" d="M292,168v48l20,6,28,23,52-32V186Z"/>
  <path id="Forma_5" data-name="Forma 5" class="cls-1" d="M346,250l53-33,1-29,68,10,1,41-77,48Z"/>
  <path id="Forma_6" data-name="Forma 6" class="cls-1" d="M478,233l8,5,51,45,27-32-65-47-22,8Z"/>
  <path id="Forma_7" data-name="Forma 7" class="cls-1" d="M307,162l163,30,1-40-12-2-6,10-12-6-1-9-19-1-8-14-10-1-11,4-5-5-10,2-2-10-5-8-4,14-7-18H335l-17,5,1,27Z"/>
  <path id="Forma_8" data-name="Forma 8" class="cls-1" d="M422,311l22,25,41,19,29-13,6,15,37,23-1-70-76-66-40,24,7,20Z"/>
  <path id="Forma_9" data-name="Forma 9" class="cls-1" d="M227,416l6,8-4,6,15,5-2,19,5-1,7,14,15,4v10l14,1,8-10h16l12,19,13-1,1-11,18-4,2-24,9-1,11-6v-8l-8,5-1-17,5-6-9-20,11-18,58-42-18-25,24-27-4-13L307,354l-18-11Z"/>
  <path id="Forma_10" data-name="Forma 10" class="cls-1" d="M404,398l-21-17,57-38,45,22,23-13,5,16,43,22-2,28-24,38v18h7l1,15-33,25-1,13,3,5-8,5-7-16,4-20-19-5-10-17-35,15-12-6,17-16-9-16,17-16-8-33-12-1-5-11Z"/>
  <path id="Forma_11" data-name="Forma 11" class="cls-1" d="M477,206l22-8,69,48,39-34,1-17-19-12-19,5,5,27-10,11-11-13V192l-27-4-4-11H504l-27-19v48Z"/>
  <path id="Forma_12" data-name="Forma 12" class="cls-1" d="M530,181l28,4,2,27,4,4,4-6-4-24,21-10-6-12H530v17Z"/>
  <path id="Forma_13" data-name="Forma 13" class="cls-1" d="M542,288l21,24,2,41,10-15V307l31-34-32-21Z"/>
  <path id="Forma_14" data-name="Forma 14" class="cls-1" d="M581,346l5-12V306l25-28,28,16,1,20,12,1,14,14,33,1-1,11-34-3-25,19-11-6-35,16"/>
  <path id="Forma_15" data-name="Forma 15" class="cls-1" d="M592,375l-17-26-13,19-4,82,24,1-2-23,116-61,1-10,24-8-51-3-30,18-14-5Z"/>
  <path id="Forma_16" data-name="Forma 16" class="cls-1" d="M471,580l72-1,15-55-5-15-1-78-15,32,5,9,4,24-36,24,4,6-1,15-16,7-8-10-3-24,4-8-18-5-25,8,10,22-21,18,5,11,20-17Z"/>
  <path id="Forma_17" data-name="Forma 17" class="cls-1" d="M581,246l64,48v13h10V294l13-13,38,7,11-9,2-12,36,2,13-23-23-23-47-7-2,10-31-1-1-22-6-4,19-2-21-16H640l-23,17v19Z"/>
  <path id="Forma_18" data-name="Forma 18" class="cls-1" d="M842,222l39-10,1,60-41,1Z"/>
  <path id="Forma_19" data-name="Forma 19" class="cls-1" d="M814,252l6,8,14,1,1-35-23,1v9l-10-1-1,16H773l-14,25-35-3v9l-17,13-37-8-10,7v20l14,10h33v18h35l5,13,21,9,7-12,47,8V343l10-14,30,7V307l12-5-1-15H844l-19-11-21,4V265h9Z"/>
  <path id="Forma_20" data-name="Forma 20" class="cls-1" d="M738,422h7v9l-8,9H718l-2,6-10-6-11,1v10l11-1,6,12H694l-6,9-14-18,9-9-8-11-15-5-8,9-9-7-21,2-3,12,11,7,3,12,9,17-10,10-6-5-2-12-8,12-8,4-3-6-19-2-13,15,3,10-4,14-9-5-5-14V459h28l3-29,117-59-1-11,29-11v10l-18,17v12l28,18v8l-5,1Z"/>
  <path id="Forma_1" data-name="Forma 1" class="cls-1" d="M25,114l267,45,18-24-3-17,10-14,16-2V95l-7-12H316l-6-17-32-5-13,4-5-14-15-1,1,12-27-2-28-9h-9V28l-19-1-4,20-10-1-1-11-6-7L130,40l-2,11-12,2-9-3-7-15L89,38V27L76,26,67,36V78l-8-9L34,67l-9,6v41Z"/>
  <path id="Forma_2" data-name="Forma 2" class="cls-1" d="M48,128l232,36,4,61,11,1-15,15-39,4-94,89v27l-12,3-8-25,4-40L84,268l-13,9L44,246l38-23,71-6-5-13-16-13H61L49,168Z"/>
  <path id="Forma_3" data-name="Forma 3" class="cls-1" d="M179,347l-25,10V338l93-87,33,2,26-27,79,66-79,54-17-17-74,85,7,11-1,10-11,1-6,15-10-3,4-29h-5l-14-28,8-5-3-16,8-3,1-11Z"/>
</svg>
